HIERARCHY
ROOT Hips
{
   OFFSET 0.00000 0.00000 0.00000
   CHANNELS 6 Xposition Yposition Zposition Zrotation Xrotation Yrotation
   JOINT RightUpLeg
   {
      OFFSET -7.156640 -6.933656 0.081322
      CHANNELS 3 Zrotation Xrotation Yrotation
      JOINT RightLeg
      {
         OFFSET 0.000000 -35.538158 1.098160
         CHANNELS 3 Zrotation Xrotation Yrotation
         JOINT RightFoot
         {
            OFFSET 0.202839 -33.673920 -1.168472
            CHANNELS 3 Zrotation Xrotation Yrotation
            JOINT RightToes
            {
               OFFSET 0.032000 -3.532072 6.799280
               CHANNELS 3 Zrotation Xrotation Yrotation
               End Site
               {
                  OFFSET -0.064000 -0.109958 7.823832
               }
            }
         }
      }
   }
   JOINT Spine
   {
      OFFSET 0.000000 9.512400 0.000000
      CHANNELS 3 Zrotation Xrotation Yrotation
      JOINT Spine1
      {
         OFFSET 0.000000 20.525920 0.102130
         CHANNELS 3 Zrotation Xrotation Yrotation
         JOINT HEad
         {
            OFFSET 0.000000 6.987328 0.009073
            CHANNELS 3 Zrotation Xrotation Yrotation
            End Site
            {
               OFFSET -0.232000 10.219360 2.011160
            }
         }
         JOINT LeftShoulder1
         {
            OFFSET 7.192000 -0.289802 -0.176000
            CHANNELS 3 Zrotation Xrotation Yrotation
            JOINT LeftArm
            {
               OFFSET 8.226160 -0.002704 0.257698
               CHANNELS 3 Zrotation Xrotation Yrotation
               JOINT LeftForeArm
               {
                  OFFSET 26.213519 0.079315 -1.139472
                  CHANNELS 3 Zrotation Xrotation Yrotation
                  JOINT LeftHand
                  {
                     OFFSET 22.051441 0.068290 0.817728
                     CHANNELS 3 Zrotation Xrotation Yrotation
                     End Site
                     {
                        OFFSET 13.395442 -0.480000 1.202328
                     }
                  }
               }
            }
         }
         JOINT RightShoulder
         {
            OFFSET -7.192000 -0.289802 -0.176000
            CHANNELS 3 Zrotation Xrotation Yrotation
            JOINT RightArm
            {
               OFFSET -8.226160 -0.002704 0.257698
               CHANNELS 3 Zrotation Xrotation Yrotation
               JOINT RightForeArm
               {
                  OFFSET -26.317679 0.079315 -1.139472
                  CHANNELS 3 Zrotation Xrotation Yrotation
                  JOINT RightHand
                  {
                     OFFSET -21.993682 0.068290 0.817728
                     CHANNELS 3 Zrotation Xrotation Yrotation
                     End Site
                     {
                        OFFSET -13.304962 -0.480000 1.202328
                     }
                  }
               }
            }
         }
      }
   }
   JOINT LeftUpLeg
   {
      OFFSET 7.156640 -6.933656 0.081322
      CHANNELS 3 Zrotation Xrotation Yrotation
      JOINT LeftLeg
      {
         OFFSET 0.000000 -35.538158 1.098160
         CHANNELS 3 Zrotation Xrotation Yrotation
         JOINT LeftFoot
         {
            OFFSET -0.202839 -33.673920 -1.168472
            CHANNELS 3 Zrotation Xrotation Yrotation
            JOINT LeftToes
            {
               OFFSET -0.032000 -3.532072 6.799280
               CHANNELS 3 Zrotation Xrotation Yrotation
               End Site
               {
                  OFFSET 0.064000 -0.037958 7.823832
               }
            }
         }
      }
   }
}
MOTION
Frames: 16
Frame Time: 0.016667
-304.908118 78.421210 14.759028 -20.130202 2.934093 -163.655349 -50.889687 -9.340892 -126.327818 -27.466281 -18.974872 86.718814 -9.414827 56.090753 38.046794 -54.070192 -48.627583 16.024568 0.183441 5.167830 203.422827 -0.791188 -25.112557 -186.266922 -31.992203 7.149292 14.697437 15.327646 81.146295 -22.276997 201.480731 26.362548 157.140072 -10.279577 71.367021 -53.136290 -91.124887 -43.397338 -99.741444 -26.352033 66.934604 49.557230 116.480557 56.121629 175.534017 17.902424 128.837216 49.504156 -5.427969 0.897182 49.909292 20.829254 -27.875066 -118.354256 -10.422008 -27.271209 70.760746 -27.722336 7.857636 85.723676 -23.976585 -1.659989 -6.242515
-302.220340 77.815427 15.211065 -19.729613 -0.645992 -165.498789 -51.791538 -9.059630 -122.091680 -26.714234 -12.141342 75.497605 -11.333942 53.601136 40.704622 -55.927863 -47.980747 18.289942 -3.064788 2.609639 207.321103 -2.106492 -24.165763 -187.461768 -32.489858 6.139138 14.690946 17.002861 81.456501 -22.817563 202.673228 28.581183 156.452969 -10.236359 73.601716 -51.465848 -92.343502 -43.447632 -96.431616 -28.405143 66.504630 51.110975 115.693555 57.232068 175.953528 18.888150 130.740722 48.637128 -5.050146 0.655820 50.109840 22.721065 -30.381095 -116.683632 -9.692467 -27.389380 66.119742 -27.446557 8.337204 87.202077 -25.074360 -3.118038 -4.867077
-299.558750 77.206510 15.474641 -19.708646 -4.816923 -167.264216 -52.485045 -8.740775 -117.888245 -24.639957 -6.351595 65.454522 -15.843853 52.245838 43.080605 -57.852317 -47.646416 20.896592 -6.730113 -0.131838 212.065694 -3.799192 -22.140328 -188.457405 -33.051282 4.773098 14.880399 18.606207 81.996803 -23.371985 204.740043 29.967370 155.792681 -11.740328 75.829621 -50.313981 -94.616343 -42.886696 -100.690259 -29.958193 65.854143 52.010996 115.813015 58.242519 176.882775 19.699657 131.499119 47.820029 -4.948979 0.390284 49.776206 23.959028 -32.636949 -114.918356 -8.856139 -27.236173 59.953044 -27.202251 7.837215 88.786660 -26.130303 -4.617963 -3.764082
-297.072635 76.678475 15.564559 -19.913206 -6.757041 -169.422829 -53.343624 -7.788248 -113.912850 -22.817321 -0.801266 57.010834 -16.713393 51.283646 45.737890 -59.053734 -48.483650 22.427467 -9.350479 -1.934616 215.015462 -4.449260 -21.276480 -189.329934 -33.180407 4.039249 15.107306 19.445274 82.183937 -24.008981 205.833693 31.584263 155.515197 -13.345231 77.439107 -48.551341 -95.614814 -42.767055 -99.919534 -31.214405 66.068802 53.499830 115.710931 59.026187 176.691448 20.496141 131.609535 47.106404 -4.921984 0.202397 49.583919 25.345838 -34.474212 -113.713081 -9.961001 -27.294643 54.812432 -27.838506 8.772102 90.154215 -27.074460 -5.314962 -2.723797
-294.773612 76.239227 15.616969 -21.491622 -8.055149 -171.747415 -53.134760 -8.182039 -111.377791 -20.616771 0.738287 50.620287 -17.782198 50.655480 48.215279 -59.433922 -49.812617 22.733141 -12.461579 -2.555223 217.946815 -4.428515 -20.196728 -189.538911 -33.136571 3.872708 15.449541 19.756262 82.347431 -24.073297 206.445350 32.837613 155.206254 -15.593209 78.798574 -47.085603 -97.341705 -42.083691 -103.376477 -32.393873 66.578034 54.836785 115.907217 59.343846 175.711753 20.731620 130.985666 46.053223 -5.053283 0.063595 49.482634 26.309064 -36.227457 -113.120917 -11.143601 -28.038423 49.887114 -29.639350 10.982033 90.630975 -27.798771 -5.198803 -2.036483
-292.554374 75.929712 15.685494 -22.021242 -8.674453 -172.562189 -53.188295 -8.220434 -109.281982 -19.701430 2.603747 47.892132 -17.410804 50.303503 50.603659 -60.378483 -50.504645 23.587971 -12.721584 -3.136196 219.086104 -4.116057 -20.300924 -189.934939 -32.994779 3.924249 15.903315 19.707812 82.225765 -24.110785 207.140813 33.808484 155.077423 -17.427094 79.647089 -45.292893 -98.077459 -41.930572 -103.177753 -32.806526 67.414841 56.450219 116.252033 59.141399 174.667567 21.267826 129.893027 45.549671 -5.051122 -0.209744 49.185148 26.550096 -36.899544 -112.926366 -11.380825 -28.386942 46.267333 -30.605822 12.404087 91.406332 -28.402734 -5.206738 -1.537155
-290.595031 75.751365 15.746907 -21.314474 -9.034142 -172.327763 -51.854127 -7.387224 -108.772429 -18.305503 4.270139 47.709729 -18.185493 49.093740 52.840567 -61.671028 -50.703493 24.673674 -11.698551 -3.537439 219.695603 -4.196821 -20.314122 -190.568425 -32.906212 4.170777 16.465107 19.160168 82.059279 -24.311415 207.944413 34.233209 155.437538 -19.142766 80.405752 -43.771588 -99.253823 -41.570198 -105.087282 -33.554161 67.403558 57.354314 116.325375 58.030278 174.190314 21.382389 128.800675 44.816559 -5.033520 -0.276470 48.792925 26.179091 -36.891624 -113.196739 -11.712458 -27.888106 45.230851 -30.573303 13.439296 92.199761 -28.887004 -5.061551 -1.241397
-288.951831 75.826324 15.765970 -19.280767 -8.935995 -170.497627 -49.700281 -6.182866 -109.578371 -18.171213 5.022157 49.376520 -16.777615 47.737534 54.219913 -63.421667 -49.794541 26.069801 -9.685842 -3.738388 219.444539 -5.054805 -20.566622 -191.736893 -32.920334 4.563391 17.124575 18.339461 81.475885 -24.635114 208.914409 34.432042 155.977738 -20.284842 80.818869 -42.471008 -99.722046 -41.412820 -104.674118 -34.542360 66.377479 57.502953 116.291019 56.244296 174.628348 21.149479 127.483391 43.947073 -4.958457 -0.322241 48.221272 25.344576 -36.263803 -113.270320 -11.399218 -27.081662 46.844340 -28.953237 13.405981 93.539953 -29.306597 -5.423516 -0.998866
-287.586151 76.069359 15.755054 -18.379018 -8.483007 -169.679138 -47.581949 -6.340763 -111.909098 -19.742926 3.618166 51.908922 -15.680830 46.252603 55.208860 -64.413882 -50.260183 26.428425 -7.693525 -3.464833 218.940443 -5.715763 -21.018656 -192.532705 -33.050821 4.955648 17.863368 16.989088 80.920359 -25.120792 209.495767 34.366377 156.587633 -21.155135 81.103244 -41.504543 -100.433970 -41.384844 -105.474704 -35.450966 65.294273 57.836239 116.067809 53.744853 174.852651 20.762715 125.972034 43.088662 -4.861532 -0.225162 47.267870 24.678252 -35.779560 -113.444497 -11.829168 -26.511022 49.334487 -28.122047 13.937992 93.819717 -29.572011 -5.324965 -1.023165
-286.495147 76.429948 15.701993 -17.879038 -8.143482 -169.151028 -45.580438 -7.881353 -115.457122 -22.503071 0.685118 54.203913 -16.100988 45.905835 55.422873 -64.967953 -50.851424 26.070272 -6.700352 -2.826675 218.150887 -6.079218 -21.322720 -193.179483 -33.198315 5.486365 18.641263 15.405082 80.301072 -25.026334 209.243542 34.129533 156.453693 -21.729193 81.410186 -40.874065 -100.823496 -41.176711 -105.089543 -36.465834 64.307338 57.811336 116.148159 51.040436 174.645082 20.728424 123.588735 42.649528 -4.732533 0.076499 45.698398 23.855165 -35.634781 -113.078863 -12.732659 -26.148493 52.731072 -27.421488 14.733896 93.533806 -29.711808 -5.102106 -1.188837
-285.588222 76.896867 15.653471 -18.888236 -8.480266 -168.511886 -45.639792 -9.602540 -119.080592 -24.953849 -3.356395 56.167852 -15.936074 46.495188 55.394108 -65.311642 -51.563960 25.305935 -4.748654 -2.154388 217.466352 -5.877253 -22.800703 -192.269074 -33.061046 6.440903 19.353182 13.556384 79.063572 -21.852466 214.049167 36.119461 161.861782 -20.967077 81.700428 -39.591222 -101.516924 -41.140261 -104.947530 -37.353857 64.089461 56.434079 118.205767 47.466926 175.175979 20.594919 120.143082 42.127698 -4.503754 0.641293 42.712308 22.786705 -36.283488 -111.538792 -13.065576 -26.833576 55.491814 -27.455313 15.533525 93.204802 -29.858428 -5.333485 -1.034368
-284.803157 77.358888 15.542850 -19.257461 -7.747266 -168.134163 -44.533971 -10.191960 -123.778696 -25.913422 -7.668775 57.286333 -7.643487 47.019739 55.056294 -65.030074 -53.000052 23.584887 -3.906297 -1.035392 216.587853 -5.348852 -23.058150 -192.850938 -33.114656 7.137236 20.148180 12.506543 79.729570 -22.884964 213.008766 35.559406 160.863481 -21.882920 82.384779 -39.260993 -102.122782 -40.604430 -104.674684 -39.285834 63.255857 57.090174 118.189334 44.547023 174.511251 19.893399 117.552569 41.001854 -4.545633 0.925925 40.507267 22.895047 -36.071803 -110.727639 -13.143419 -26.657578 57.331474 -28.626241 16.971610 92.552915 -29.972482 -5.486971 -0.653938
-284.141098 77.918724 15.392234 -18.851612 -6.646844 -167.745088 -42.610477 -10.211847 -128.074994 -25.577962 -11.076183 58.945140 -11.242861 47.385117 55.313904 -65.175639 -54.583081 22.677155 -2.446003 -1.348713 215.826342 -5.354292 -23.728410 -192.931520 -32.904812 7.775241 20.907276 12.103360 79.836469 -24.155778 212.363313 35.806935 159.909208 -22.350542 82.293835 -38.519023 -102.530750 -40.784156 -105.069387 -40.763167 62.935521 58.075111 118.057935 42.446139 174.016910 20.003998 115.001015 40.732878 -5.175387 0.686464 40.422016 22.943044 -34.939471 -110.682635 -13.082018 -26.005879 58.499477 -29.042456 17.652629 91.904758 -29.920634 -5.907257 -0.534645
-283.525138 78.379945 15.209882 -17.450693 -5.032851 -167.376504 -40.011224 -9.184736 -132.138206 -24.849191 -14.530222 60.921510 -9.425355 48.579109 55.270068 -65.811345 -55.404688 22.555421 -2.179574 -2.436836 215.615944 -5.672816 -24.469991 -192.626607 -32.609871 8.514195 21.608671 12.221039 79.985162 -25.766743 212.305529 36.019112 159.193077 -23.355202 82.336790 -38.208437 -102.922802 -40.780286 -104.842543 -42.887653 62.120468 59.037539 117.413397 40.372545 173.892545 19.479575 112.739717 39.773336 -5.672041 0.516224 40.525561 23.455491 -33.239324 -111.573551 -12.966646 -24.363590 59.033810 -29.082720 17.683307 91.270725 -29.705340 -6.373588 -0.671572
-283.026367 78.803281 15.013551 -16.585902 -4.242201 -166.827767 -38.397893 -8.862380 -136.003574 -23.816204 -17.656883 63.153124 -10.292071 49.815817 55.332141 -66.499780 -56.169809 22.722870 -1.312881 -2.822782 215.022934 -5.949657 -25.107893 -192.789876 -32.428205 9.114663 22.300726 12.705292 80.207437 -26.986460 212.531691 36.188367 158.474514 -24.091529 82.430077 -37.553555 -103.504612 -40.904364 -104.967030 -44.653926 61.586033 59.471987 117.371651 37.960002 174.501853 19.294605 110.133624 39.193203 -6.074376 0.765463 40.701633 23.473685 -32.333129 -111.709458 -13.010466 -23.504810 59.406581 -28.797717 17.280742 90.793896 -29.384970 -6.890192 -0.940903
-282.615924 79.162368 14.800813 -15.915364 -3.817659 -166.207927 -37.398861 -8.628055 -139.726628 -22.679565 -20.438369 65.606993 -9.917038 51.405496 55.363215 -67.255937 -56.646464 23.155841 -0.732729 -3.183144 214.521229 -6.311063 -25.527253 -193.119173 -32.311487 9.533300 22.972026 13.210331 80.443502 -28.111551 212.913348 36.354136 157.845358 -24.813536 82.480668 -36.734240 -103.935590 -41.072339 -104.751189 -46.204225 61.013383 59.687876 117.390338 35.357424 175.337363 19.179195 107.282239 38.746516 -6.436299 0.940761 40.851269 23.269331 -31.719276 -111.442657 -13.084231 -22.892562 59.591386 -28.340217 16.532242 90.401167 -28.947486 -7.347487 -1.400406
